<svg width="1920" height="720" viewBox="0 0 1920 720" fill="none" xmlns="http://www.w3.org/2000/svg">
<rect opacity="0.6" x="320" y="549" width="320" height="57" rx="7" fill="#D12510"/>
<rect opacity="0.2" y="663" width="320" height="57" rx="7" fill="#D12510"/>
<rect opacity="0.2" x="1600" y="662" width="320" height="57" rx="7" fill="#D12510"/>
<rect opacity="0.3" x="800" y="606" width="320" height="57" rx="7" fill="#97B1B2"/>
<rect opacity="0.3" x="1280" y="663" width="320" height="57" rx="7" fill="#97B1B2"/>
<rect opacity="0.6" x="640" y="549" width="320" height="57" rx="7" fill="#FEC05C"/>
<rect opacity="0.2" x="960" y="663" width="320" height="57" rx="7" fill="#FEC05C"/>
<rect opacity="0.2" x="320" y="663" width="320" height="57" rx="7" fill="#FEC05C"/>
<rect x="1120" y="492" width="320" height="57" rx="7" fill="#FEC05C"/>
<rect opacity="0.3" x="1440" y="606" width="320" height="57" rx="7" fill="#FEC05C"/>
<rect opacity="0.6" x="1280" y="549" width="320" height="57" rx="7" fill="#D12510"/>
<rect opacity="0.3" x="1120" y="606" width="320" height="57" rx="7" fill="#0165B1"/>
<rect opacity="0.3" x="480" y="606" width="320" height="57" rx="7" fill="#0165B1"/>
<rect x="800" y="492" width="320" height="57" rx="7" fill="#0165B1"/>
<rect opacity="0.6" x="960" y="549" width="320" height="57" rx="7" fill="black"/>
<rect opacity="0.3" x="160" y="606" width="320" height="57" rx="7" fill="black"/>
<rect opacity="0.2" x="640" y="663" width="320" height="57" rx="7" fill="black"/>
<rect x="496" y="93.0979" width="320" height="57" rx="7" transform="rotate(-16.9137 496 93.0979)" fill="#0165B1"/>
<rect x="319.946" y="226" width="320" height="57" rx="7" transform="rotate(14.1624 319.946 226)" fill="#D12510"/>
<rect x="711" y="425.997" width="320" height="57" rx="7" transform="rotate(-58.5521 711 425.997)" fill="#FEC05C"/>
</svg>
