<svg width="1920" height="228" viewBox="0 0 1920 228" fill="none" xmlns="http://www.w3.org/2000/svg">
<rect opacity="0.6" x="320" y="57" width="320" height="57" rx="7" fill="#D12510"/>
<rect opacity="0.2" y="171" width="320" height="57" rx="7" fill="#D12510"/>
<rect opacity="0.2" x="1600" y="170" width="320" height="57" rx="7" fill="#D12510"/>
<rect opacity="0.3" x="800" y="114" width="320" height="57" rx="7" fill="#97B1B2"/>
<rect opacity="0.3" x="1280" y="171" width="320" height="57" rx="7" fill="#97B1B2"/>
<rect opacity="0.6" x="640" y="57" width="320" height="57" rx="7" fill="#FEC05C"/>
<rect opacity="0.2" x="960" y="171" width="320" height="57" rx="7" fill="#FEC05C"/>
<rect opacity="0.2" x="320" y="171" width="320" height="57" rx="7" fill="#FEC05C"/>
<rect x="1120" width="320" height="57" rx="7" fill="#FEC05C"/>
<rect opacity="0.3" x="1440" y="114" width="320" height="57" rx="7" fill="#FEC05C"/>
<rect opacity="0.6" x="1280" y="57" width="320" height="57" rx="7" fill="#D12510"/>
<rect opacity="0.3" x="1120" y="114" width="320" height="57" rx="7" fill="#0165B1"/>
<rect opacity="0.3" x="480" y="114" width="320" height="57" rx="7" fill="#0165B1"/>
<rect x="800" width="320" height="57" rx="7" fill="#0165B1"/>
<rect opacity="0.6" x="960" y="57" width="320" height="57" rx="7" fill="black"/>
<rect opacity="0.3" x="160" y="114" width="320" height="57" rx="7" fill="black"/>
<rect opacity="0.2" x="640" y="171" width="320" height="57" rx="7" fill="black"/>
</svg>
