<!-- 🔬OPTIMIZE: Define a pattern image and then use it as background for the top bars -->
<svg
	width="764"
	height="964"
	viewBox="0 0 764 964"
	fill="none"
	xmlns="http://www.w3.org/2000/svg"
>
<g id="VerticalBarsFrame">
<path
			id="TopRightBar"
			d="M326 136C326 71.889 326 39.8335 345.917 19.9167C365.833 0 397.889 0 462 0H468C532.111 0 564.167 0 584.083 19.9167C604 39.8335 604 71.889 604 136V534C604 598.111 604 630.167 584.083 650.083C564.167 670 532.111 670 468 670H462C397.889 670 365.833 670 345.917 650.083C326 630.167 326 598.111 326 534V136Z"
			fill="black"
		/>
<path
			id="TopLeftBar"
			d="M0 307C0 242.889 0 210.833 19.9167 190.917C39.8335 171 71.889 171 136 171H144C208.111 171 240.167 171 260.083 190.917C280 210.833 280 242.889 280 307V664C280 728.111 280 760.167 260.083 780.083C240.167 800 208.111 800 144 800H136C71.889 800 39.8335 800 19.9167 780.083C0 760.167 0 728.111 0 664V307Z"
			fill="black"
		/>
<g id="BottomLeftBar" filter="url(#filter0_b_1773_31)">
<path
				d="M164 621C164 556.889 164 524.833 183.917 504.917C203.833 485 235.889 485 300 485H308C372.111 485 404.167 485 424.083 504.917C444 524.833 444 556.889 444 621V828C444 892.111 444 924.167 424.083 944.083C404.167 964 372.111 964 308 964H300C235.889 964 203.833 964 183.917 944.083C164 924.167 164 892.111 164 828V621Z"
				fill="white"
				fill-opacity="0.5"
			/>
<path
				fill-rule="evenodd"
				clip-rule="evenodd"
				d="M308 486H300C267.916 486 243.954 486.002 225.519 488.481C207.112 490.955 194.365 495.882 184.624 505.624C174.882 515.365 169.955 528.112 167.481 546.519C165.002 564.954 165 588.916 165 621V828C165 860.084 165.002 884.046 167.481 902.481C169.955 920.888 174.882 933.635 184.624 943.376C194.365 953.118 207.112 958.045 225.519 960.519C243.954 962.998 267.916 963 300 963H308C340.084 963 364.046 962.998 382.481 960.519C400.888 958.045 413.635 953.118 423.376 943.376C433.118 933.635 438.045 920.888 440.519 902.481C442.998 884.046 443 860.084 443 828V621C443 588.916 442.998 564.954 440.519 546.519C438.045 528.112 433.118 515.365 423.376 505.624C413.635 495.882 400.888 490.955 382.481 488.481C364.046 486.002 340.084 486 308 486ZM183.917 504.917C164 524.833 164 556.889 164 621V828C164 892.111 164 924.167 183.917 944.083C203.833 964 235.889 964 300 964H308C372.111 964 404.167 964 424.083 944.083C444 924.167 444 892.111 444 828V621C444 556.889 444 524.833 424.083 504.917C404.167 485 372.111 485 308 485H300C235.889 485 203.833 485 183.917 504.917Z"
				fill="url(#paint0_radial_1773_31)"
				fill-opacity="0.3"
			/>
</g>
<g id="BottomRightBar" filter="url(#filter1_b_1773_31)">
<path
				d="M484 438C484 373.889 484 341.833 503.917 321.917C523.833 302 555.889 302 620 302H628C692.111 302 724.167 302 744.083 321.917C764 341.833 764 373.889 764 438V828C764 892.111 764 924.167 744.083 944.083C724.167 964 692.111 964 628 964H620C555.889 964 523.833 964 503.917 944.083C484 924.167 484 892.111 484 828V438Z"
				fill="white"
				fill-opacity="0.5"
			/>
<path
				fill-rule="evenodd"
				clip-rule="evenodd"
				d="M628 303H620C587.916 303 563.954 303.002 545.519 305.481C527.112 307.955 514.365 312.882 504.624 322.624C494.882 332.365 489.955 345.112 487.481 363.519C485.002 381.954 485 405.916 485 438V828C485 860.084 485.002 884.046 487.481 902.481C489.955 920.888 494.882 933.635 504.624 943.376C514.365 953.118 527.112 958.045 545.519 960.519C563.954 962.998 587.916 963 620 963H628C660.084 963 684.046 962.998 702.481 960.519C720.888 958.045 733.635 953.118 743.376 943.376C753.118 933.635 758.045 920.888 760.519 902.481C762.998 884.046 763 860.084 763 828V438C763 405.916 762.998 381.954 760.519 363.519C758.045 345.112 753.118 332.365 743.376 322.624C733.635 312.882 720.888 307.955 702.481 305.481C684.046 303.002 660.084 303 628 303ZM503.917 321.917C484 341.833 484 373.889 484 438V828C484 892.111 484 924.167 503.917 944.083C523.833 964 555.889 964 620 964H628C692.111 964 724.167 964 744.083 944.083C764 924.167 764 892.111 764 828V438C764 373.889 764 341.833 744.083 321.917C724.167 302 692.111 302 628 302H620C555.889 302 523.833 302 503.917 321.917Z"
				fill="url(#paint1_radial_1773_31)"
				fill-opacity="0.3"
			/>
</g>
</g>
<defs>
<filter
			id="filter0_b_1773_31"
			x="44"
			y="365"
			width="520"
			height="719"
			filterUnits="userSpaceOnUse"
			color-interpolation-filters="sRGB"
		>
<feFlood flood-opacity="0" result="BackgroundImageFix" />
<feGaussianBlur in="BackgroundImageFix" stdDeviation="60" />
<feComposite
				in2="SourceAlpha"
				operator="in"
				result="effect1_backgroundBlur_1773_31"
			/>
<feBlend
				mode="normal"
				in="SourceGraphic"
				in2="effect1_backgroundBlur_1773_31"
				result="shape"
			/>
</filter>
<filter
			id="filter1_b_1773_31"
			x="364"
			y="182"
			width="520"
			height="902"
			filterUnits="userSpaceOnUse"
			color-interpolation-filters="sRGB"
		>
<feFlood flood-opacity="0" result="BackgroundImageFix" />
<feGaussianBlur in="BackgroundImageFix" stdDeviation="60" />
<feComposite
				in2="SourceAlpha"
				operator="in"
				result="effect1_backgroundBlur_1773_31"
			/>
<feBlend
				mode="normal"
				in="SourceGraphic"
				in2="effect1_backgroundBlur_1773_31"
				result="shape"
			/>
</filter>
<radialGradient
			id="paint0_radial_1773_31"
			cx="0"
			cy="0"
			r="1"
			gradientUnits="userSpaceOnUse"
			gradientTransform="translate(201 485) rotate(57.021) scale(266.382 166.037)"
		>
<stop offset="0.0208333" stop-color="white" />
<stop offset="1" stop-color="white" stop-opacity="0" />
</radialGradient>
<radialGradient
			id="paint1_radial_1773_31"
			cx="0"
			cy="0"
			r="1"
			gradientUnits="userSpaceOnUse"
			gradientTransform="translate(521 302) rotate(64.8494) scale(341.177 179.165)"
		>
<stop offset="0.0208333" stop-color="white" />
<stop offset="1" stop-color="white" stop-opacity="0" />
</radialGradient>
</defs>
</svg>
