<svg width="1512" height="720" viewBox="0 0 1512 720" fill="none" xmlns="http://www.w3.org/2000/svg">
<rect opacity="0.6" x="72" y="549" width="320" height="57" rx="7" fill="#D12510"/>
<rect opacity="0.2" x="-248" y="663" width="320" height="57" rx="7" fill="#D12510"/>
<rect opacity="0.2" x="1352" y="662" width="320" height="57" rx="7" fill="#D12510"/>
<rect opacity="0.3" x="552" y="606" width="320" height="57" rx="7" fill="#97B1B2"/>
<rect opacity="0.3" x="1032" y="663" width="320" height="57" rx="7" fill="#97B1B2"/>
<rect opacity="0.6" x="392" y="549" width="320" height="57" rx="7" fill="#FEC05C"/>
<rect opacity="0.2" x="712" y="663" width="320" height="57" rx="7" fill="#FEC05C"/>
<rect opacity="0.2" x="72" y="663" width="320" height="57" rx="7" fill="#FEC05C"/>
<rect x="872" y="492" width="320" height="57" rx="7" fill="#FEC05C"/>
<rect opacity="0.3" x="1192" y="606" width="320" height="57" rx="7" fill="#FEC05C"/>
<rect opacity="0.6" x="1032" y="549" width="320" height="57" rx="7" fill="#D12510"/>
<rect opacity="0.3" x="872" y="606" width="320" height="57" rx="7" fill="#0165B1"/>
<rect opacity="0.3" x="232" y="606" width="320" height="57" rx="7" fill="#0165B1"/>
<rect x="552" y="492" width="320" height="57" rx="7" fill="#0165B1"/>
<rect opacity="0.6" x="712" y="549" width="320" height="57" rx="7" fill="black"/>
<rect opacity="0.3" x="-88" y="606" width="320" height="57" rx="7" fill="black"/>
<rect opacity="0.2" x="392" y="663" width="320" height="57" rx="7" fill="black"/>
<rect x="248" y="93.0979" width="320" height="57" rx="7" transform="rotate(-16.9137 248 93.0979)" fill="#0165B1"/>
<rect x="71.9463" y="226" width="320" height="57" rx="7" transform="rotate(14.1624 71.9463 226)" fill="#D12510"/>
<rect x="463" y="425.997" width="320" height="57" rx="7" transform="rotate(-58.5521 463 425.997)" fill="#FEC05C"/>
</svg>
